<svg width="68" height="119" viewBox="0 0 68 119" fill="none" xmlns="http://www.w3.org/2000/svg">
<path d="M33.953 118.635C25.1423 118.625 16.6954 115.12 10.4653 108.89C4.23512 102.66 0.730469 94.2127 0.720093 85.402V33.2329C0.720093 24.419 4.22141 15.9661 10.4538 9.7337C16.6862 3.50132 25.1391 0 33.953 0C42.767 0 51.2199 3.50132 57.4523 9.7337C63.6847 15.9661 67.186 24.419 67.186 33.2329V85.402C67.1756 94.2127 63.671 102.66 57.4408 108.89C51.2107 115.12 42.7638 118.625 33.953 118.635ZM33.953 4.90065C26.4415 4.9093 19.2401 7.89707 13.9286 13.2085C8.61717 18.52 5.62939 25.7214 5.62074 33.2329V85.402C5.62074 89.1226 6.35358 92.8069 7.77741 96.2443C9.20124 99.6817 11.2882 102.805 13.9191 105.436C16.55 108.067 19.6733 110.154 23.1107 111.578C26.5482 113.001 30.2324 113.734 33.953 113.734C37.6737 113.734 41.3579 113.001 44.7953 111.578C48.2328 110.154 51.3561 108.067 53.987 105.436C56.6179 102.805 58.7048 99.6817 60.1287 96.2443C61.5525 92.8069 62.2853 89.1226 62.2853 85.402V33.2329C62.2767 25.7214 59.2889 18.52 53.9774 13.2085C48.666 7.89707 41.4646 4.9093 33.953 4.90065Z" fill="#545454"/>
<path d="M33.9531 56.1907C27.8585 56.1836 21.9991 53.8378 17.5833 49.6373C13.1675 45.4367 10.5322 39.7017 10.2209 33.615C10.2109 33.4889 10.2109 33.3622 10.2209 33.2361V32.4323C10.2111 32.3062 10.2111 32.1795 10.2209 32.0534C10.5399 25.9745 13.1795 20.2499 17.5951 16.06C22.0108 11.87 27.8659 9.53418 33.9531 9.53418C40.0403 9.53418 45.8954 11.87 50.311 16.06C54.7267 20.2499 57.3662 25.9745 57.6853 32.0534C57.695 32.1795 57.695 32.3062 57.6853 32.4323V33.2361C57.6952 33.3622 57.6952 33.4889 57.6853 33.615C57.374 39.7017 54.7386 45.4367 50.3229 49.6373C45.9071 53.8378 40.0477 56.1836 33.9531 56.1907ZM15.0954 32.8375C15.2248 37.7529 17.2684 42.4235 20.7908 45.8544C24.3131 49.2853 29.0359 51.2052 33.9531 51.2052C38.8702 51.2052 43.593 49.2853 47.1154 45.8544C50.6378 42.4235 52.6814 37.7529 52.8108 32.8375C52.6814 27.922 50.6378 23.2514 47.1154 19.8205C43.593 16.3896 38.8702 14.4697 33.9531 14.4697C29.0359 14.4697 24.3131 16.3896 20.7908 19.8205C17.2684 23.2514 15.2248 27.922 15.0954 32.8375ZM64.2783 92.8933C63.8889 92.8957 63.5049 92.8014 63.1609 92.6189L2.06618 61.1567C1.78001 61.0095 1.52563 60.8074 1.31756 60.562C1.10949 60.3165 0.951803 60.0324 0.853509 59.726C0.654994 59.1072 0.710439 58.4349 1.00764 57.8569C1.30485 57.279 1.81947 56.8428 2.4383 56.6442C3.05712 56.4457 3.72947 56.5012 4.30741 56.7984L65.4022 88.2606C65.893 88.5111 66.2851 88.9198 66.515 89.4206C66.7449 89.9214 66.7993 90.4851 66.6694 91.0207C66.5395 91.5562 66.2328 92.0323 65.799 92.3721C65.3651 92.7119 64.8294 92.8955 64.2783 92.8933Z" fill="#545454"/>
<path d="M33.9531 77.2897C33.4051 77.2859 32.8742 77.0991 32.4446 76.7589C32.0151 76.4187 31.7116 75.9446 31.5824 75.4121C31.4532 74.8796 31.5057 74.3192 31.7317 73.82C31.9576 73.3208 32.3439 72.9114 32.8292 72.657L63.5987 56.7984C64.1767 56.5012 64.849 56.4458 65.4678 56.6443C66.0867 56.8428 66.6013 57.279 66.8985 57.857C67.1957 58.4349 67.2511 59.1073 67.0526 59.7261C66.8541 60.3449 66.4179 60.8596 65.84 61.1568L35.077 77.0153C34.7292 77.194 34.3441 77.288 33.9531 77.2897ZM34.3647 27.1332C33.0626 27.1304 31.7925 26.7291 30.7252 25.9832C29.4395 25.0745 28.5518 23.7069 28.2453 22.1626C27.9389 20.6184 28.2372 19.0154 29.0786 17.6847L33.3715 10.7258C33.5372 10.4452 33.7572 10.2005 34.0187 10.006C34.2801 9.81145 34.5777 9.67103 34.8941 9.59292C35.2104 9.51481 35.5392 9.50059 35.8611 9.55108C36.183 9.60158 36.4916 9.71577 36.7689 9.88699C37.0461 10.0582 37.2865 10.283 37.4758 10.5482C37.6651 10.8135 37.7996 11.1138 37.8714 11.4316C37.9433 11.7495 37.951 12.0784 37.8941 12.3993C37.8373 12.7202 37.717 13.0265 37.5403 13.3003L33.2278 20.2919C33.1378 20.4238 33.0749 20.5722 33.0426 20.7286C33.0104 20.8849 33.0094 21.0461 33.0398 21.2029C33.0701 21.3596 33.1313 21.5088 33.2196 21.6418C33.308 21.7748 33.4218 21.8889 33.5545 21.9777C33.846 22.1811 34.2051 22.2634 34.5561 22.2074C34.9071 22.1513 35.2227 21.9612 35.4363 21.6771C35.8193 21.152 36.3952 20.8006 37.0373 20.7001C37.6794 20.5996 38.3352 20.7583 38.8603 21.1413C39.3854 21.5243 39.7368 22.1002 39.8373 22.7423C39.9378 23.3844 39.7791 24.0401 39.3961 24.5652C38.8207 25.3611 38.0645 26.0089 37.1898 26.4554C36.3151 26.9018 35.3468 27.1341 34.3647 27.1332Z" fill="#545454"/>
</svg>
