<svg width="28" height="28" viewBox="0 0 28 28" fill="none" xmlns="http://www.w3.org/2000/svg">
<g clip-path="url(#clip0_1_232)">
<path d="M27.5609 13.5549C27.5609 6.06872 21.4922 0 14.0061 0C6.51989 0 0.451172 6.06872 0.451172 13.5549C0.451172 20.3204 5.40797 25.9282 11.8881 26.9451V17.4731H8.44643V13.5549H11.8881V10.5686C11.8881 7.17138 13.9118 5.29488 17.008 5.29488C18.4906 5.29488 20.0422 5.55962 20.0422 5.55962V8.89539H18.333C16.6493 8.89539 16.124 9.94034 16.124 11.0133V13.5549H19.8834L19.2824 17.4731H16.124V26.9451C22.6041 25.9282 27.5609 20.3204 27.5609 13.5549Z" fill="black"/>
</g>
<defs>
<clipPath id="clip0_1_232">
<rect width="27.1098" height="27.1098" fill="white" transform="translate(0.451172)"/>
</clipPath>
</defs>
</svg>
