<svg width="76" height="114" viewBox="0 0 76 114" fill="none" xmlns="http://www.w3.org/2000/svg">
<g clip-path="url(#clip0_383_621)">
<path d="M34.44 34.6397C32.94 29.7697 32.39 24.5397 35.75 20.2897C37.64 17.9097 40.52 16.7597 42.79 14.8497C46.22 11.9597 47.48 8.90974 48.3 4.57974C48.69 2.53974 47.95 1.20974 50.79 0.949744C56.84 0.389744 63.74 1.38974 69.88 0.949744C71.97 1.14974 72.01 3.39974 72.12 5.06974C72.61 12.5397 71.86 21.4897 69.82 28.6997C67.32 37.5297 62.91 42.7397 63.62 52.6697C64.25 61.4097 71.28 67.6697 73.76 75.7397C77.97 89.4497 71.02 103.81 61.1 113.02L33.35 113.09C32.35 113.13 31.53 112.53 31.37 111.53C30.78 107.8 31.79 102.7 31.36 98.8197C31 95.6397 27.91 95.5997 25.55 94.4997C19.9 91.8797 15.02 88.3497 11.38 83.2297C-2.70002 63.4097 12.28 38.2497 34.42 34.6297L34.44 34.6397ZM35.15 109.31H59.76C68.05 100.4 74.17 88.2297 69.83 75.9197C67.54 69.4197 62.56 64.3897 60.7 57.4897C56.9 43.4597 65.52 34.4997 67.58 21.4997C68.28 17.1097 68.88 9.87974 68.37 5.53974C68.33 5.19974 68.34 4.92974 68 4.72974H52.1C51.56 8.18974 50.57 11.3597 48.52 14.2297C43.51 21.2697 34.46 20.6297 37.67 31.9997C38.18 33.7997 40.45 36.9997 37.79 37.8797C35.99 38.4797 33.39 38.5697 31.33 39.1897C8.68998 45.9597 1.05998 74.5497 22.21 88.4497C25.26 90.4497 28.01 91.0697 31.06 92.5497C32.75 93.3697 35.14 95.9397 35.14 97.8897V109.31H35.15Z" fill="white"/>
<path d="M6.83999 19.1496C8.35999 19.0896 9.61 19.9696 10.55 20.0296C11.15 20.0696 11.7 19.5496 12.28 19.4296C18.19 18.2296 23.06 23.2796 20.74 29.0696C20.06 30.7696 13.94 37.0196 12.3 38.2896C11.16 39.1696 10.48 39.4196 9.22 38.5296C7.89 37.5796 1.70999 31.1896 0.949995 29.8396C-1.69001 25.1596 1.41 19.3496 6.83999 19.1396V19.1496ZM7.03999 22.9496C4.56999 22.9696 3.21999 25.2896 3.92999 27.5896C4.05999 28.0196 9.49 33.5297 10.18 34.0597C10.36 34.1997 10.46 34.4396 10.74 34.3896C12.09 32.6696 17.17 28.9096 17.47 26.9696C17.9 24.1996 15.46 22.1396 12.85 23.2896C12.36 23.4997 11.87 24.0996 11.43 24.2196C9.47 24.7496 8.85999 22.9296 7.04999 22.9496H7.03999Z" fill="white"/>
<path d="M34.59 1.98956C37.62 4.92956 37.21 9.09956 34.68 12.1596C33.95 13.0396 27.43 19.5396 26.92 19.6996C26.31 19.8896 25.44 19.9396 24.89 19.5796C22.42 16.3596 15.88 12.2396 15.39 8.11956C14.86 3.69956 18.29 -0.200443 22.79 -0.000442635C23.94 0.0495574 25.48 0.939557 26.08 0.939557C26.54 0.939557 27.04 0.439557 27.56 0.319557C30.1 -0.290443 32.68 0.129557 34.59 1.98956ZM21.9 3.83956C21 3.97956 20.12 4.57956 19.64 5.35956C18.55 7.12956 19.25 8.46956 20.42 9.91956C20.95 10.5696 25.66 15.3796 26.04 15.3196L32.42 8.96956C34.04 6.24956 31.7 3.03956 28.58 3.95956C27.58 4.24956 27.01 5.30956 25.83 5.22956C24.53 5.14956 24.08 3.49956 21.88 3.84956L21.9 3.83956Z" fill="white"/>
<path d="M32.09 69.5103C32.73 70.4403 34.67 69.7304 35.47 69.2304C38.14 67.5704 38.32 63.3403 42.59 64.7803C43.51 65.0903 44.33 66.3703 44.45 66.3903C44.8 66.4403 50.55 64.3003 50.66 63.9303C50.83 63.4103 50.64 62.5603 50.75 61.9003C51.46 57.7903 58.15 57.5803 58.88 61.1903C59.18 62.6803 58.9 67.2403 58.68 68.8903C58.28 71.8603 54.34 72.4203 52.46 74.2103C51.35 92.5703 30.86 90.5503 21.37 79.4003C14.65 71.5103 12.59 55.9403 22.69 49.8603C36.88 41.3203 46.12 61.9903 33.12 69.2403C32.8 69.4203 32.46 69.5103 32.1 69.5103H32.09ZM40.8 69.2703C38.33 72.3803 34.89 74.6403 30.78 73.2903C28.96 72.6903 25.61 70.2703 26.3 68.0803C26.74 66.6903 28.76 66.8804 29.92 66.5103C40.06 63.3403 35.36 46.7903 24.86 52.9703C16.48 57.9103 19.03 71.3403 24.66 77.5103C29.85 83.1903 42.11 88.0403 47.25 79.8403C48.83 77.3303 48.13 75.9103 48.62 73.4403C49.14 70.8303 52.88 69.7003 54.81 68.3303L55.16 62.4403C54.42 61.5903 54.23 65.3503 54.17 65.5703C53.76 67.0603 52.49 67.5203 51.22 68.0403C49.83 68.6103 45.43 69.7103 44.58 70.3503C44.1 70.7103 43.92 72.0503 43.6 72.6703C42.68 74.4303 38.89 79.8604 36.57 77.8703C34.78 75.3303 37.9 74.3403 39.25 72.5603C39.95 71.6403 40.57 70.4203 40.8 69.2803V69.2703Z" fill="white"/>
</g>
<defs>
<clipPath id="clip0_383_621">
<rect width="75.03" height="113.09" fill="white"/>
</clipPath>
</defs>
</svg>
