<svg width="57" height="92" viewBox="0 0 57 92" fill="none" xmlns="http://www.w3.org/2000/svg">
<g clip-path="url(#clip0_383_627)">
<rect width="57" height="92" fill="#F2C94C"/>
<path d="M30.2745 0C35.7291 1.15824 37.4139 7.22569 34.1812 11.5717C35.5817 12.2093 37.0349 12.6768 38.3933 13.4313C48.7234 19.2012 52.0615 32.7919 45.5327 42.7697C44.9009 43.726 44.1427 44.5974 43.4372 45.5006C48.2811 48.0721 52.1668 52.0143 54.3149 57.1361C56.2946 61.8646 56.9896 67.1564 52.6827 70.8117C56.1577 72.9476 57.7057 76.9536 56.6842 80.9596C56.1682 82.9891 51.4402 89.1735 49.7132 90.438C44.3218 94.3802 36.8243 89.9917 37.2244 83.4035C37.3613 81.2465 40.2887 74.1589 41.7313 72.5225C42.4263 71.7362 43.2056 71.3218 43.9216 70.6098C44.0269 70.2486 44.0374 66.9651 43.9532 66.5188C43.9111 66.3169 43.6478 65.8813 43.5109 65.8813H13.4683C13.4683 65.8813 13.026 66.2957 13.026 66.3276V70.3654H29.2952C30.822 70.3654 31.8329 72.48 30.5483 73.6064C30.3692 73.7551 29.4636 74.1377 29.2952 74.1377H16.4062C18.2279 78.9938 21.8819 84.0517 18.0068 88.9397C15.6375 91.9256 11.5307 92.7226 8.16104 90.9799C6.03394 89.8748 0.832016 83.1592 0.273915 80.8108C-0.663273 76.8154 0.863607 72.9369 4.30698 70.8117C0.0422505 67.1883 0.684593 61.9921 2.62215 57.2636C4.74925 52.0887 8.66649 48.0933 13.5525 45.5006C2.33784 32.5581 9.30883 13.6332 26.115 10.966C27.5893 10.7323 28.7581 11.0298 30.2218 10.2647C33.0439 8.77708 33.0439 3.77223 29.4636 3.58097C26.61 3.42158 27.8209 5.90806 26.3467 6.71564C25.0831 7.40633 23.6615 6.37561 23.6826 4.94109C23.7352 2.31647 25.9466 0.5313 28.3158 0H30.2745ZM45.3327 31.453C45.3327 22.0702 37.793 14.462 28.4949 14.462C19.1967 14.462 11.6571 22.0702 11.6571 31.453C11.6571 40.8358 19.1967 48.444 28.4949 48.444C37.793 48.444 45.3327 40.8358 45.3327 31.453ZM47.5229 69.0903C50.6609 68.9734 52.5774 66.1788 52.3037 63.0972C51.7245 56.7004 46.3436 50.3779 40.4993 48.1571C33.3282 53.3107 23.6615 53.3107 16.4904 48.1571C11.5307 50.1866 7.50817 54.1608 5.67591 59.2613C4.74925 61.8328 3.94896 64.7974 5.76015 67.1776C6.54992 68.219 8.13998 69.1966 9.46678 69.0903V65.5944C9.46678 65.3287 10.2881 63.8942 10.5303 63.6179C10.8989 63.2141 11.9098 62.7253 12.0467 62.4491C12.4995 61.514 11.4991 59.4206 13.026 58.7725C15.2057 57.8374 15.9745 60.3876 15.6901 62.0878H41.2996C41.1838 60.207 41.5523 58.0286 43.9637 58.7831C45.4696 59.2506 44.7219 61.9496 45.1221 62.6297C45.2589 62.8528 45.8065 63.0016 46.0382 63.2354C46.4173 63.6073 47.5229 65.1268 47.5229 65.5944V69.0903ZM7.82407 73.2663C4.42282 73.7658 2.64321 77.6761 4.04373 80.7577C4.50706 81.7884 8.24528 86.5914 9.12982 87.2927C12.0783 89.641 16.4483 87.4414 16.2272 83.7223C16.1429 82.341 13.4472 75.7316 12.489 74.7433C11.2885 73.5001 9.5089 73.0113 7.82407 73.2663ZM47.3123 73.2663C46.4489 73.3938 45.2168 74.042 44.5955 74.6583C43.6057 75.6359 40.9942 81.9584 40.8152 83.4035C40.3203 87.4308 45.0799 89.8642 48.1548 87.0377C49.2815 85.9963 53.1355 80.9277 53.3567 79.5463C53.9464 75.7422 51.1137 72.7138 47.3123 73.2663Z" fill="#1E1E1E"/>
<path d="M22.9243 86.3895C23.6403 87.0802 23.4719 88.0046 24.8934 88.2597C25.9886 88.4509 31.38 88.4403 32.3804 88.1747C33.8441 87.7921 34.0863 84.7956 36.3187 86.2407C38.5511 87.6859 35.4342 90.9906 33.623 91.575C32.075 92.085 26.2834 92.0744 24.5249 91.8619C22.482 91.6175 19.3335 89.3648 20.0495 87.0271C20.397 85.9007 22.1029 85.5713 22.9348 86.3789L22.9243 86.3895Z" fill="#1E1E1E"/>
<path d="M36.4555 73.9995C37.4209 73.9995 38.2035 73.2098 38.2035 72.2356C38.2035 71.2614 37.4209 70.4717 36.4555 70.4717C35.4901 70.4717 34.7075 71.2614 34.7075 72.2356C34.7075 73.2098 35.4901 73.9995 36.4555 73.9995Z" fill="#1E1E1E"/>
<path d="M33.4229 37.5634C35.0551 39.0192 33.2439 40.815 31.9276 41.6013C30.0111 42.7489 27.8208 42.8658 25.7674 41.9732C24.2616 41.3144 21.8397 39.3911 23.514 37.6484C24.9671 36.1395 26.0623 38.1797 27.0943 38.6685C27.9577 39.0723 28.8949 39.0829 29.79 38.7323C30.9062 38.286 31.875 36.1927 33.4229 37.574V37.5634Z" fill="#1E1E1E"/>
<path d="M20.9867 28.9451C22.3451 28.9132 24.6618 29.9333 24.5038 31.5909C24.3985 32.6429 23.4192 33.3549 22.3662 33.1955C21.8502 33.1211 21.4185 32.5473 21.1131 32.5473C20.4918 32.5473 19.2176 34.1731 18.0277 32.5473C16.6272 30.6346 19.2808 28.9769 20.9867 28.9451Z" fill="#1E1E1E"/>
<path d="M35.75 28.945C37.6454 28.86 40.6992 30.8577 38.8038 32.7385C37.4875 34.0455 36.5292 32.5366 35.8869 32.5472C35.5921 32.5472 35.234 33.0148 34.9181 33.121C33.1385 33.6736 31.7591 31.7503 32.949 30.2414C33.486 29.5613 34.9076 28.9875 35.7605 28.945H35.75Z" fill="#1E1E1E"/>
</g>
<defs>
<clipPath id="clip0_383_627">
<rect width="57" height="92" fill="white"/>
</clipPath>
</defs>
</svg>
