<svg width="72" height="68" viewBox="0 0 72 68" fill="none" xmlns="http://www.w3.org/2000/svg">
<g clip-path="url(#clip0_383_635)">
<path d="M17.8448 0.000273265C20.5612 -0.16265 21.8737 1.90444 23.6439 3.52348C25.6787 2.61722 27.805 1.91462 29.9923 1.50731C45.9245 -1.45585 62.2535 5.17308 67.4828 21.2515C68.9784 25.8643 69.3243 32.9005 68.8868 37.7373C68.8258 38.3687 68.2764 38.9491 68.2865 39.0611C68.3069 39.1731 69.2937 40.507 69.4972 41.006C70.535 43.4905 70.1077 45.6595 69.1717 48.0728C70.535 52.5022 74.3094 57.7463 69.9144 61.7583C66.323 65.0473 57.543 62.8275 52.8936 63.4893C44.2052 69.4462 30.7757 69.5277 22.0975 63.5097C17.8855 63.1737 13.2361 63.8457 9.07501 63.4792C7.16233 63.3061 5.18862 62.0129 4.19158 60.404C1.71935 56.4226 4.4968 52.8993 5.80922 49.1114C3.88637 46.1788 3.55064 42.9305 5.42261 39.8553C5.57522 39.6008 6.3993 38.7047 6.40947 38.6334C6.40947 38.5418 6.1653 38.2057 6.14495 37.8799C5.98217 35.1713 5.99235 31.4241 6.14495 28.7053C6.19582 27.6972 6.43999 26.5771 6.58243 25.569C5.82957 25.1312 5.14792 24.9886 4.43576 24.4285C3.24542 23.5019 0.590059 20.7526 0.203454 19.3576C-1.19036 14.3884 4.44593 13.2072 6.89782 10.5292C7.6405 9.72474 7.90502 8.69629 9.00379 7.83076C9.47179 7.47437 10.1433 7.26053 10.5197 6.94487C12.9207 4.91851 14.0093 0.234475 17.8448 0.000273265ZM18.6282 10.631C19.6863 9.64328 23.0029 8.56392 21.7719 6.80231C21.4769 6.38482 19.3505 4.24646 18.9233 3.94097C17.3056 2.76996 16.0339 5.91642 15.1691 6.94487C16.6545 7.77985 18.1704 8.89994 18.618 10.631H18.6282ZM65.2853 35.8535C65.2446 32.1878 65.5294 28.6544 64.7562 25.0395C61.348 8.96104 45.426 2.02663 30.1755 5.14253C28.5782 5.46838 27.0623 6.04879 25.5362 6.57829C25.8313 7.8104 25.7295 8.8694 25.1089 9.97931C23.9695 12.0158 20.3883 13.3396 18.852 14.979C18.2823 15.6002 17.9364 16.6795 17.2039 17.3923C16.5222 18.0542 15.4845 18.3291 14.9453 18.879C13.8058 20.0296 12.351 22.4938 11.2726 23.9092C11.0487 24.1943 10.6113 24.4693 10.4586 24.7544C10.2246 25.2024 10.0212 26.6687 9.93978 27.239C9.57353 30.0799 9.85839 32.9922 9.76683 35.8535L11.0487 35.711C14.3145 32.4831 16.7969 29.0006 21.7109 28.3591C28.0186 27.5445 29.9211 30.864 34.8656 33.1755C38.2128 34.7334 41.8652 35.5684 45.5379 35.8535H65.2751H65.2853ZM15.515 12.8305C15.515 11.354 14.3247 10.1626 12.8495 10.1626C11.3743 10.1626 10.184 11.354 10.184 12.8305C10.184 14.307 11.3743 15.4983 12.8495 15.4983C14.3247 15.4983 15.515 14.307 15.515 12.8305ZM7.07077 15.1419C6.90799 15.1012 6.7859 15.1419 6.6333 15.2132C6.40947 15.315 4.27297 16.9443 4.0695 17.1581C3.52011 17.7385 3.45907 18.1458 3.92707 18.8179C4.18141 19.1743 6.95886 21.8931 7.22338 21.9847C7.85415 22.1884 8.15937 21.944 8.57649 21.5265C8.84101 21.2515 10.6418 18.7568 10.5299 18.604C8.90205 18.1153 7.65068 16.7203 7.07077 15.1521V15.1419ZM58.8351 39.4582C53.036 39.2342 46.9724 39.9673 41.2547 38.9592C37.8058 38.3483 34.1738 37.0042 31.1318 35.2833C29.5345 34.377 27.7541 32.7784 26.0653 32.2489C22.0364 30.9964 18.5875 32.6358 16.1153 35.8128C16.1153 42.4621 15.3116 48.7143 18.8113 54.6711C23.7253 63.0311 32.6274 65.1593 41.794 64.0698C50.228 63.0617 57.3802 56.3513 58.652 47.8997C59.0691 45.13 58.7435 42.2584 58.8452 39.4582H58.8351ZM12.4731 39.7637C6.10426 39.8146 6.40947 48.8365 12.7681 48.6226C12.1984 45.7206 12.5748 42.7065 12.4731 39.7637ZM62.284 48.6226C66.7503 48.2459 68.429 42.1464 63.8202 40.395C63.5557 40.2932 62.4061 39.7739 62.4264 40.283L62.2738 48.6226H62.284ZM56.7291 59.8847H66.1094C66.1907 59.8847 66.7808 59.5792 66.9233 59.4977C70.1483 57.7158 67.086 53.4696 66.4044 51.0156C64.7257 51.8505 62.9962 52.3291 61.1038 52.2375C60.2289 55.0683 58.6214 57.6241 56.7393 59.8745L56.7291 59.8847ZM9.09536 59.8847H18.1704C16.2781 57.6241 14.7622 55.0479 13.7957 52.2477C12.0458 52.3088 10.4281 52.1458 8.81049 51.4636C8.52562 51.5145 6.75538 56.4735 6.76556 56.9521C6.79608 58.0823 7.98641 59.681 9.09536 59.8847Z" fill="#1E1E1E"/>
<path d="M33.1361 49.7014C34.0314 49.5181 34.9878 49.8542 35.3133 50.7604C35.4964 51.2797 35.3438 51.6565 35.7304 52.1453C36.2493 52.8275 37.3481 52.909 38.0908 52.5526C39.3014 51.962 38.6402 49.9458 40.3188 49.6811C43.1573 49.233 42.7605 52.7155 41.5092 54.3345C39.4337 57.0228 35.1404 57.0533 32.953 54.4873C31.9254 53.2755 31.0098 50.1495 33.1361 49.7116V49.7014Z" fill="#1E1E1E"/>
<path d="M26.4315 45.3134C25.933 45.4865 26.0246 46.0465 25.8109 46.4233C24.6918 48.3987 21.6295 46.7186 22.7995 44.01C24.0712 41.0774 29.3107 41.4134 29.9618 44.5497C30.5519 47.4008 26.7876 48.0729 26.4315 45.3134Z" fill="#1E1E1E"/>
<path d="M48.1831 45.3132C47.4811 45.9852 47.8474 46.8304 46.6571 47.1664C44.1746 47.8589 43.5947 44.4273 45.4972 42.849C47.1352 41.4947 49.9025 41.6576 51.1844 43.4396C53.4125 46.5351 49.0479 48.8466 48.1831 45.3132Z" fill="#1E1E1E"/>
</g>
<defs>
<clipPath id="clip0_383_635">
<rect width="72" height="68" fill="white"/>
</clipPath>
</defs>
</svg>
