<svg width="100" height="127" viewBox="0 0 100 127" fill="none" xmlns="http://www.w3.org/2000/svg">
<path d="M97.8746 84.2211H59.1923C57.9171 84.2211 57.0669 85.0682 57.0669 86.3388V92.6921C57.0669 93.9628 57.9171 94.8099 59.1923 94.8099H64.0808C62.8055 95.657 61.5303 96.0806 60.255 96.7159C57.2795 94.1746 53.6663 92.6921 49.6281 92.6921C45.3773 92.6921 41.339 94.3864 38.3634 97.3512C26.4612 93.1157 18.3847 81.8915 18.3847 69.1849C18.3847 57.1136 25.8236 46.1012 36.8757 41.4421C37.9384 41.8657 39.2136 42.2892 40.4888 42.2892C42.8268 42.2892 44.9522 41.4421 46.6525 40.1714L66.4187 68.7613C66.8438 69.1849 67.2689 69.6084 67.6939 69.6084C67.9065 69.6084 67.9065 69.6084 68.119 69.6084C68.5441 69.6084 68.9692 69.3967 69.3943 69.1849L70.2444 68.5496C70.882 69.1849 71.7322 69.8202 72.5824 70.2438L72.1573 72.9969C71.9447 74.0558 72.7949 75.3264 73.8576 75.5382C74.0701 75.5382 74.0701 75.5382 74.2827 75.5382C75.3454 75.5382 76.1955 74.9029 76.4081 73.844L76.8331 71.3027C77.8959 71.3027 78.9585 71.0909 80.0212 70.6673L81.0839 72.5733C81.509 73.2086 82.1467 73.6322 82.9968 73.6322C83.4219 73.6322 83.6344 73.6322 84.0595 73.4204C85.1222 72.7851 85.3347 71.5144 84.9097 70.4556L83.4219 68.126C84.0595 67.2789 84.4846 66.22 84.9097 65.1611H87.4601C88.7354 65.1611 89.5855 64.314 89.5855 63.0434C89.5855 61.7727 88.7354 60.9256 87.4601 60.9256H84.9097C84.6971 60.502 84.6971 59.8667 84.4846 59.4431L85.5473 58.596C85.9724 58.1725 86.3974 57.7489 86.3974 57.3254C86.3974 56.69 86.3974 56.2665 85.9724 55.8429L53.8788 9.04023C53.4538 8.61668 53.0287 8.19312 52.6036 8.19312C51.966 8.19312 51.5409 8.19312 51.1158 8.61668L47.0776 11.3698L39.8512 0.992705C39.2136 -0.0661803 37.9384 -0.277957 36.8757 0.357374L29.8618 5.22824C29.2242 5.44002 28.7991 5.86357 28.7991 6.49891C28.7991 7.13424 28.7992 7.55779 29.2242 7.98135L36.4506 18.3584L35.1753 19.2055C34.7503 19.6291 34.3252 20.0526 34.3252 20.4762C34.3252 21.1115 34.3252 21.5351 34.7503 21.9586L36.238 24.0764C35.1753 24.7117 34.1126 25.5588 33.475 26.6177C15.6217 32.971 3.71945 49.9132 3.71945 68.7613C3.71945 86.5506 13.9214 102.222 29.8618 109.423H6.48246C5.20723 109.423 4.35707 110.27 4.35707 111.54V117.258L0.31881 123.188C-0.10627 123.823 -0.10627 124.67 0.31881 125.306C0.74389 126.576 1.38151 127 2.23167 127H77.4708C78.3209 127 78.9585 126.576 79.3836 125.941C79.8087 125.306 79.8087 124.459 79.3836 123.823L75.3454 117.894V112.176C75.3454 110.905 74.4952 110.058 73.22 110.058H67.6939C74.9203 106.669 81.084 101.375 85.5473 95.0217H97.8746C99.1498 95.0217 100 94.1746 100 92.9039V86.5506C100 85.0682 99.1498 84.2211 97.8746 84.2211ZM49.4155 96.9277C52.8162 96.9277 55.7917 98.1983 58.1296 100.74C60.255 102.857 61.3177 105.822 61.3177 108.787V108.999V109.211C61.3177 109.423 61.3177 109.634 61.3177 109.846H37.7258C37.7258 109.423 37.7258 109.211 37.7258 108.787C37.7258 107.305 37.9384 106.034 38.3634 104.763C38.7885 103.493 39.4261 102.222 40.4888 101.163C42.8268 98.6219 46.0149 96.9277 49.4155 96.9277ZM37.9384 37.4183C36.238 36.5712 35.1753 34.6652 35.1753 32.7593C35.1753 31.7004 35.3879 30.6415 36.0255 29.7944C36.8757 28.5237 37.9384 27.6766 39.4261 27.4648C39.8512 27.4648 40.0638 27.4648 40.4888 27.4648C43.4644 27.4648 45.8023 29.7944 45.8023 32.7593C45.8023 33.8181 45.5898 34.6652 44.9522 35.5123L44.7396 35.9359C43.2519 38.0537 40.2763 38.689 37.9384 37.4183ZM80.4463 61.7727C80.6589 62.1963 80.6589 62.408 80.6589 62.8316C80.6589 65.1611 78.746 67.0671 76.4081 67.0671C75.5579 67.0671 74.4952 66.8553 73.8576 66.22L76.4081 64.5258L80.4463 61.7727ZM51.5409 13.2758L81.0839 56.2665L68.7566 64.7376L49.4155 36.5712C49.4155 36.5712 49.4155 36.5712 49.4155 36.3595C49.6281 35.9359 49.8406 35.3006 49.8406 34.877C49.8406 34.6652 49.8406 34.6652 49.8406 34.4535C50.0531 33.8181 50.0531 33.3946 50.0531 32.7593C50.0531 32.1239 50.0531 31.4886 49.8406 30.8533C49.8406 30.8533 49.8406 30.8533 49.8406 30.6415C48.9904 26.8295 46.0149 24.0764 42.1892 23.4411C41.9766 23.4411 41.9766 23.4411 41.7641 23.4411C41.339 23.4411 40.9139 23.2293 40.4888 23.2293H40.2763H40.0638L39.0011 21.7468L40.2763 20.8997L47.2901 16.0289L51.5409 13.2758ZM33.6876 7.34601L37.3007 5.01647L43.2519 13.6993L39.6387 16.2406L33.6876 7.34601ZM7.54516 69.1849C7.54516 53.3016 16.6844 39.1126 30.9245 32.3357C30.9245 32.5475 30.9245 32.5475 30.9245 32.7593C30.9245 33.1828 30.9245 33.8181 31.1371 34.2417C31.1371 34.4535 31.1371 34.4535 31.1371 34.6652C31.1371 35.0888 31.3496 35.3006 31.3496 35.7241C31.3496 35.9359 31.3496 35.9359 31.5622 36.1477C31.7747 36.5712 31.7747 36.783 31.9872 37.2066C31.9872 37.4183 32.1998 37.4183 32.1998 37.6301C32.4123 38.0537 32.6249 38.4772 33.0499 38.9008C21.5728 44.6188 14.1339 56.4783 14.1339 69.3967C14.1339 83.5857 22.6355 95.8688 35.6004 101.163V101.375C35.3879 101.799 35.1753 102.222 34.9628 102.434C34.9628 102.646 34.7503 102.857 34.7503 103.069C34.5377 103.281 34.5377 103.705 34.3252 103.916C34.3252 104.128 34.1126 104.34 34.1126 104.552C34.1126 104.763 33.9001 104.975 33.9001 105.399C33.9001 105.611 33.6876 105.822 33.6876 106.034C33.6876 106.246 33.6876 106.458 33.475 106.669C33.475 106.881 33.475 107.093 33.475 107.305C17.9596 100.951 7.54516 86.127 7.54516 69.1849ZM6.26992 122.764L7.7577 120.647H72.1573L73.6451 122.764H6.26992ZM71.0946 116.411H8.60786V114.293H35.813H63.0181H70.882V116.411H71.0946ZM95.7492 90.5744H84.272C83.6344 90.5744 82.7843 90.9979 82.5717 91.6332C78.3209 97.9866 72.3698 103.069 65.356 106.246V106.034C65.356 105.822 65.1435 105.399 65.1435 105.187C65.1435 104.975 65.1435 104.763 64.9309 104.552C64.9309 104.128 64.7184 103.916 64.7184 103.493C64.7184 103.281 64.5058 103.069 64.5058 102.857C64.2933 102.434 64.2933 102.222 64.0808 101.799C64.0808 101.587 64.0808 101.587 63.8682 101.375C63.6557 100.951 63.4431 100.528 63.0181 100.104C66.2062 98.6219 69.1817 96.7159 71.7322 94.1746C72.3698 93.5392 72.5824 92.6921 72.3698 91.845C71.9447 90.9979 71.3071 90.5744 70.457 90.5744H61.5303V88.4566H95.9617V90.5744H95.7492Z" fill="#545454"/>
</svg>
