<svg width="28" height="28" viewBox="0 0 28 28" fill="none" xmlns="http://www.w3.org/2000/svg">
<g clip-path="url(#clip0_1_236)">
<path d="M25.9931 0H2.8916C1.78497 0 0.890137 0.873655 0.890137 1.95381V25.1507C0.890137 26.2308 1.78497 27.1098 2.8916 27.1098H25.9931C27.0998 27.1098 27.9999 26.2308 27.9999 25.156V1.95381C27.9999 0.873655 27.0998 0 25.9931 0ZM8.93305 23.1015H4.90895V10.1609H8.93305V23.1015ZM6.921 8.39767C5.62905 8.39767 4.58596 7.35458 4.58596 6.06793C4.58596 4.78127 5.62905 3.73818 6.921 3.73818C8.20766 3.73818 9.25075 4.78127 9.25075 6.06793C9.25075 7.34929 8.20766 8.39767 6.921 8.39767ZM23.9917 23.1015H19.9729V16.8112C19.9729 15.3128 19.9464 13.3802 17.8814 13.3802C15.7899 13.3802 15.4722 15.0163 15.4722 16.7053V23.1015H11.4587V10.1609H15.3134V11.9294H15.3663C15.9011 10.9127 17.2142 9.83788 19.1681 9.83788C23.2398 9.83788 23.9917 12.5171 23.9917 16.0011V23.1015Z" fill="black"/>
</g>
<defs>
<clipPath id="clip0_1_236">
<rect width="27.1098" height="27.1098" fill="white" transform="translate(0.890137)"/>
</clipPath>
</defs>
</svg>
