<svg width="89" height="87" viewBox="0 0 89 87" fill="none" xmlns="http://www.w3.org/2000/svg">
<path d="M58.0584 86.9691C56.5866 86.8672 54.568 86.4646 53.1171 86.1097C43.4854 83.749 35.2454 76.1133 32.6467 66.752L32.3872 66.4973C26.7684 66.1236 21.5049 64.5663 16.6072 61.9135L0.17238 66.2952L4.6695 50.2764C-6.68999 31.4758 3.62621 6.6699 25.3402 1.27938C46.523 -3.97868 66.7617 10.8155 67.9949 31.8699C77.853 34.6076 85.8841 42.6339 88.2197 52.3994C88.5332 53.7088 88.9042 55.4887 89 56.8066V61.0422L88.2511 65.3101C87.6293 68.1498 86.3613 70.7601 85.0202 73.3246L88.8258 86.7975L75.0036 83.0867C72.3736 84.3944 69.6948 85.6308 66.7826 86.2371L62.404 86.9674C60.981 86.896 59.4692 87.0642 58.0584 86.9674V86.9691ZM7.64783 59.0093L17.4694 56.455C33.2267 66.8641 55.1358 60.0045 61.2335 42.3656C68.8588 20.3093 47.1901 -0.675411 24.5913 6.81936C6.58887 12.7907 -0.388453 34.1694 10.2674 49.4358L7.64609 59.0093H7.64783ZM81.3504 79.5117L79.431 72.4737C79.903 71.3885 80.6868 70.4052 81.2441 69.3267C87.739 56.7403 81.2912 41.8051 67.8782 37.1602C67.7005 37.274 67.6552 37.3793 67.6204 37.578C64.8406 53.4829 54.6464 63.4199 38.3299 66.1287C38.1262 66.1627 38.0182 66.2069 37.9015 66.3801C42.6773 79.4573 57.9852 85.7412 70.9018 79.4098C72.0113 78.8663 73.0197 78.102 74.1379 77.6367L81.3521 79.515L81.3504 79.5117Z" fill="#545454"/>
<path d="M36.6769 41.0494H31.2881V35.0339L38.3176 28.4986C40.723 24.8217 37.8056 20.0613 33.3067 20.5657C30.9101 20.834 28.5605 23.2032 28.8549 25.6302H23.6402C23.4051 20.9818 27.0418 16.7292 31.6294 15.7119C40.0646 13.842 46.9252 22.0806 43.4871 29.8115C42.0989 32.9347 38.9743 34.6636 36.6769 37.0685V41.0511V41.0494Z" fill="#545454"/>
<path d="M36.677 46.1328H31.2881V51.2159H36.677V46.1328Z" fill="#545454"/>
</svg>
