<svg width="162" height="206" viewBox="0 0 162 206" fill="none" xmlns="http://www.w3.org/2000/svg">
<g clip-path="url(#clip0_179_577)">
<path d="M118.395 11.0336C107.053 3.64077 93.5475 -0.206326 80.0475 0.00641721C122.3 0.550093 154.198 40.1912 145.154 81.7351C132.719 138.478 58.892 153.104 27.047 104.304C21.6141 95.8588 18.2861 86.1318 17.2866 76.1506H23.3604L11.6773 55.8159L0 76.1506H6.89112C7.86128 84.4771 10.2014 92.6441 13.8998 100.161C35.8256 145.026 95.5113 155.102 130.255 119.184C160.924 87.5914 155.403 34.9021 118.39 11.0277L118.395 11.0336Z" fill="white"/>
<path d="M86.0507 30.2158C86.2271 30.2276 86.4034 30.2454 86.5857 30.2749C88.1439 30.4167 91.2072 30.9191 94.4705 32.6269C91.5894 30.8481 88.7083 30.269 86.0507 30.2158Z" fill="white"/>
<path d="M109.129 108.629C108.8 107.997 107.888 107.158 105.378 106.791C101.068 106.159 99.2391 106.035 96.6284 103.517C96.6284 103.517 104.337 101.124 103.549 94.0681C103.108 90.1146 100.003 86.6694 97.2635 83.3246C94.0649 79.4184 93.6415 74.0348 96.1875 69.7091C97.287 67.8357 98.6041 65.6788 100.021 63.5159C100.021 63.5159 105.542 54.3384 101.038 44.1799C100.544 43.0689 100.333 42.478 100.08 41.9225C99.927 41.5797 99.7565 41.2488 99.5037 40.8233C95.4701 33.8028 88.5437 31.4804 80.4649 32.2545L79.0538 32.3786C75.6435 32.6977 72.1332 30.8835 70.4046 28.0883C70.6104 28.301 70.822 28.502 71.0396 28.7029C72.2038 29.7016 74.932 31.5217 78.9479 30.9308C80.9177 30.6412 83.3284 30.1803 85.9684 30.2216C85.9978 30.2216 86.0272 30.2216 86.0566 30.2216C88.7143 30.2748 91.5895 30.854 94.4764 32.6327C96.1875 33.531 97.9514 34.7542 99.5801 36.4444C99.5801 36.4444 100.209 36.9762 101.027 37.9099C101.079 37.4844 101.121 37.0708 101.144 36.6748C101.385 32.4436 99.0215 28.5611 95.3114 26.54C92.9595 25.2636 90.9956 23.4493 89.4727 20.6541C88.6731 19.1827 84.569 15.046 79.0067 15.7079C74.6733 16.222 70.5398 20.7428 68.7465 22.9707C68.1467 23.7153 67.9351 24.6962 68.1585 25.624L68.8229 28.3601C68.8053 29.5007 69.0581 30.6885 69.8578 31.7049C72.339 34.8547 73.7737 35.7352 73.7737 35.7352C73.7737 35.7352 74.4969 37.6854 74.4616 39.145C74.4264 40.6047 77.672 39.7005 77.672 39.7005C77.672 39.7005 78.1071 40.6224 78.7833 40.6579C79.4595 40.6933 80.6825 42.0407 80.6825 42.0407C80.6825 42.0407 81.3057 42.608 81.9878 42.5016C82.5816 42.413 84.1809 41.6447 85.9272 39.0091C86.2741 39.1982 87.2149 39.7773 88.138 40.9001C90.1489 43.3408 90.8839 45.1846 85.5274 47.9561C80.1709 50.7277 74.297 54.5098 75.079 59.1724C75.079 59.1724 75.6023 62.5763 77.8249 62.8245C77.8249 62.8245 73.1446 63.7759 68.9876 69.9514C65.736 74.7853 66.0947 81.1972 70.1518 85.4284C70.4281 85.7121 70.7162 85.9898 71.0278 86.2557C71.0278 86.2557 71.1337 86.4389 71.3865 86.7226C67.9939 87.3431 64.2602 88.2413 60.8382 89.5355C51.1718 93.1876 44.3806 100.498 47.1206 105.284C48.1378 107.063 50.037 108.44 52.0244 109.468C55.2876 111.158 58.9625 111.962 62.6668 111.962C67.7058 111.962 72.7447 111.643 77.7426 111.011L85.1217 110.071C85.1217 110.071 92.9771 109.764 95.7171 110.52C98.2865 111.229 105.695 111.519 108.735 109.811C109.164 109.569 109.341 109.066 109.117 108.635L109.129 108.629Z" fill="white"/>
<path d="M85.9625 30.2154C85.8096 30.2095 85.6567 30.2095 85.5156 30.2154C85.5156 30.2154 85.9096 30.2154 86.5857 30.2745C86.4035 30.2449 86.2271 30.2272 86.0507 30.2154C86.0213 30.2154 85.9919 30.2154 85.9625 30.2154Z" fill="white"/>
<path d="M32.6681 168.546C32.6681 170.183 32.3564 171.82 31.7391 173.445C31.1217 175.07 30.2515 176.382 29.1343 177.386C27.8055 178.568 26.3826 179.354 24.8773 179.733C23.3662 180.111 21.5259 180.3 19.3503 180.3H15.6343V190.866H7.43201V157.164H18.3978C19.8501 157.164 21.0731 157.205 22.0668 157.276C23.0664 157.353 24.2129 157.578 25.5124 157.962C26.8118 158.34 27.8819 158.896 28.7286 159.622C31.3569 161.868 32.6739 164.846 32.6739 168.552L32.6681 168.546ZM24.4658 168.682C24.4658 167.104 23.9483 166.046 22.9253 165.514C21.8963 164.982 20.5263 164.716 18.8035 164.716H15.6343V172.73H19.121C20.785 172.73 22.0903 172.44 23.0429 171.867C23.9954 171.288 24.4716 170.23 24.4716 168.682H24.4658Z" fill="white"/>
<path d="M47.5322 172.327C45.5977 172.386 44.1278 172.729 43.1165 173.35C42.1051 173.97 41.5995 175.181 41.5995 176.972V190.865H34.0792V165.59H41.1467V168.279H41.2349C42.4403 165.909 44.5453 164.728 47.5322 164.728V172.333V172.327Z" fill="white"/>
<path d="M84.8277 174.012C84.8277 178.964 83.105 183.112 79.6594 186.469C76.2138 189.826 72.0157 191.504 67.059 191.504C62.1023 191.504 58.1158 189.855 54.6409 186.563C51.1659 183.272 49.4314 179.224 49.4314 174.425C49.4314 171.872 49.8724 169.479 50.7485 167.228C51.2012 166.016 51.9244 164.751 52.924 163.445C56.4283 158.83 61.1557 156.525 67.106 156.525C72.0274 156.525 76.2138 158.21 79.6594 161.578C83.105 164.946 84.8277 169.095 84.8277 174.012ZM76.2609 174.059C76.2609 171.358 75.4083 169.018 73.6973 167.044C71.9863 165.071 69.8049 164.084 67.1472 164.084C64.4895 164.084 62.2611 165.047 60.556 166.973C58.8508 168.9 57.9924 171.216 57.9924 173.917C57.9924 176.618 58.8508 179.041 60.5736 180.997C62.2964 182.953 64.5189 183.934 67.2354 183.934C69.9519 183.934 72.0216 182.953 73.7149 180.997C75.4083 179.041 76.255 176.724 76.255 174.053L76.2609 174.059Z" fill="white"/>
<path d="M123.029 190.866H115.144L115.414 165.632L115.326 165.544L108.165 190.866H102.502L95.3407 165.544L95.2525 165.632L95.523 190.866H87.6382V157.164H98.651L105.313 179.342H105.401L111.975 157.164H123.029V190.866Z" fill="white"/>
<path d="M135.853 190.866H127.286V157.164H135.853V190.866Z" fill="white"/>
<path d="M162 181.162C162 184.56 160.918 187.137 158.76 188.88C156.602 190.629 153.786 191.498 150.311 191.498C146.836 191.498 143.878 190.582 141.609 188.744C139.345 186.906 138.21 184.259 138.21 180.796V179.703H146.73C146.73 180.949 147.024 182.025 147.612 182.935C148.2 183.845 149.07 184.3 150.217 184.3C151.122 184.3 151.893 183.987 152.528 183.367C153.163 182.746 153.48 181.978 153.48 181.068C153.48 180.554 153.392 180.099 153.21 179.703C153.027 179.307 152.728 178.958 152.304 178.657C151.881 178.355 151.534 178.131 151.263 177.995C150.993 177.859 150.54 177.652 149.905 177.38C149.241 177.079 148.241 176.653 146.912 176.104C144.343 175.04 142.332 173.775 140.886 172.298C139.439 170.826 138.71 168.876 138.71 166.448C138.71 163.469 139.904 161.076 142.291 159.25C144.678 157.43 147.395 156.52 150.446 156.52C152.169 156.52 153.851 156.845 155.497 157.501C157.143 158.156 158.478 159.102 159.507 160.349C160.324 161.354 160.883 162.352 161.183 163.357C161.483 164.361 161.665 165.573 161.724 167.003H153.251C153.098 165.939 152.798 165.13 152.345 164.568C151.893 164.007 151.169 163.723 150.17 163.723C149.382 163.723 148.694 163.971 148.106 164.474C147.518 164.976 147.224 165.602 147.224 166.365C147.224 166.973 147.33 167.44 147.542 167.777C147.694 168.019 147.965 168.297 148.359 168.599C148.753 168.9 149.253 169.207 149.852 169.509C150.458 169.81 150.975 170.07 151.416 170.283C151.851 170.496 152.398 170.744 153.045 171.033C153.698 171.323 154.062 171.482 154.156 171.512C156.726 172.694 158.672 173.994 160.001 175.406C161.33 176.819 161.994 178.739 161.994 181.168L162 181.162Z" fill="white"/>
<path d="M15.4285 205.852H13.6469L13.7057 200.149L13.6881 200.131L12.0712 205.852H10.7894L9.17242 200.131L9.15479 200.149L9.21358 205.852H7.43201V198.234H9.91916L11.4244 203.246H11.442L12.9296 198.234H15.4285V205.852Z" fill="white"/>
<path d="M23.578 205.852H21.4789L21.1085 204.753H18.4743L18.0745 205.852H15.993L19.0329 198.234H20.5616L23.5721 205.852H23.578ZM20.5969 203.204L19.8208 200.598H19.7914L19.0153 203.204H20.6028H20.5969Z" fill="white"/>
<path d="M30.6043 202.028C30.6043 203.269 30.2633 204.221 29.593 204.877C28.9168 205.533 27.9525 205.858 26.706 205.858H24.0542V198.24H26.5649C27.3351 198.24 27.9878 198.341 28.517 198.536C29.0461 198.731 29.5106 199.109 29.9164 199.664C30.3809 200.314 30.6102 201.106 30.6102 202.034L30.6043 202.028ZM28.6698 202.058C28.6698 201.42 28.517 200.911 28.2112 200.521C27.9055 200.137 27.4468 199.948 26.8236 199.948H25.9828V204.15H26.8118C27.4468 204.15 27.9113 203.967 28.2171 203.594C28.517 203.222 28.6698 202.714 28.6698 202.058Z" fill="white"/>
<path d="M37.3837 205.852H35.1729L33.4207 203.393H33.403V205.852H31.5509V198.234H33.9499C34.2909 198.234 34.5672 198.24 34.7848 198.252C35.0023 198.264 35.2493 198.317 35.5433 198.4C35.8314 198.488 36.0783 198.613 36.2841 198.778C36.9074 199.28 37.2131 199.972 37.2131 200.858C37.2131 201.461 37.0426 201.987 36.7075 202.436C36.3665 202.885 35.9078 203.157 35.3316 203.252L37.3895 205.846L37.3837 205.852ZM35.3551 200.97C35.3551 200.622 35.2375 200.362 35.0023 200.19C34.7671 200.025 34.4673 199.936 34.1086 199.936H33.403V202.058H34.091C34.479 202.058 34.7907 201.969 35.02 201.792C35.2493 201.615 35.361 201.337 35.361 200.97H35.3551Z" fill="white"/>
<path d="M42.2403 205.852H38.0304V198.234H42.2403V199.942H39.8825V201.124H42.1639V202.832H39.8825V204.138H42.2403V205.846V205.852Z" fill="white"/>
<path d="M48.179 203.665C48.179 204.434 47.9379 205.013 47.444 205.409C46.956 205.805 46.3209 206 45.5331 206C44.7452 206 44.0807 205.793 43.5692 205.379C43.0577 204.966 42.799 204.363 42.799 203.583V203.335H44.7216C44.7216 203.618 44.7863 203.86 44.9216 204.067C45.0568 204.274 45.2508 204.375 45.5095 204.375C45.7153 204.375 45.8858 204.304 46.0328 204.162C46.174 204.02 46.2504 203.849 46.2504 203.642C46.2504 203.524 46.2327 203.423 46.1916 203.335C46.1504 203.246 46.0799 203.163 45.9858 203.098C45.8917 203.027 45.8094 202.98 45.7506 202.95C45.6918 202.921 45.586 202.874 45.4449 202.809C45.292 202.738 45.0685 202.643 44.7687 202.519C44.1866 202.277 43.7338 201.993 43.4046 201.662C43.0753 201.331 42.9107 200.888 42.9107 200.338C42.9107 199.665 43.1811 199.121 43.7221 198.713C44.263 198.3 44.8745 198.093 45.5683 198.093C45.9564 198.093 46.3386 198.17 46.709 198.317C47.0794 198.465 47.3852 198.678 47.6145 198.961C47.7968 199.186 47.9261 199.417 47.9908 199.641C48.0614 199.866 48.1025 200.143 48.1143 200.462H46.1975C46.1622 200.22 46.0975 200.037 45.9917 199.913C45.8917 199.789 45.7271 199.724 45.4978 199.724C45.3214 199.724 45.1626 199.783 45.0333 199.895C44.898 200.007 44.8334 200.149 44.8334 200.321C44.8334 200.457 44.8569 200.563 44.9039 200.64C44.9392 200.693 44.998 200.758 45.0862 200.823C45.1744 200.894 45.2861 200.959 45.4213 201.03C45.5566 201.101 45.6742 201.154 45.7741 201.207C45.8741 201.26 45.9976 201.313 46.1446 201.378C46.2915 201.443 46.3739 201.479 46.3974 201.485C46.9795 201.751 47.4205 202.046 47.7203 202.365C48.0202 202.684 48.1731 203.116 48.1731 203.665H48.179Z" fill="white"/>
<path d="M56.8046 203.665C56.8046 204.434 56.5576 205.013 56.0696 205.409C55.5816 205.805 54.9466 206 54.1587 206C53.3708 206 52.7064 205.793 52.1948 205.379C51.6833 204.966 51.4246 204.363 51.4246 203.583V203.335H53.3531C53.3531 203.618 53.4178 203.86 53.553 204.067C53.6883 204.274 53.8823 204.375 54.141 204.375C54.3468 204.375 54.5173 204.304 54.6643 204.162C54.8054 204.02 54.8819 203.849 54.8819 203.642C54.8819 203.524 54.8584 203.423 54.8231 203.335C54.7819 203.246 54.7114 203.163 54.6173 203.098C54.5232 203.033 54.4409 202.98 54.3821 202.95C54.3233 202.921 54.2175 202.874 54.0763 202.809C53.9235 202.738 53.7 202.643 53.4002 202.519C52.8181 202.277 52.3653 201.993 52.0361 201.662C51.7068 201.331 51.5422 200.888 51.5422 200.338C51.5422 199.665 51.8126 199.121 52.3536 198.713C52.8945 198.306 53.506 198.093 54.1998 198.093C54.5879 198.093 54.9701 198.17 55.3405 198.317C55.7109 198.465 56.0167 198.678 56.246 198.961C56.4283 199.186 56.5576 199.417 56.6223 199.641C56.687 199.866 56.734 200.143 56.7458 200.462H54.829C54.7937 200.22 54.729 200.037 54.6232 199.913C54.5232 199.789 54.3586 199.724 54.1293 199.724C53.9529 199.724 53.7941 199.783 53.6648 199.895C53.5295 200.007 53.4648 200.149 53.4648 200.321C53.4648 200.457 53.4884 200.563 53.5354 200.64C53.5707 200.693 53.6295 200.758 53.7177 200.823C53.8059 200.894 53.9176 200.959 54.0587 201.03C54.1939 201.101 54.3115 201.154 54.4115 201.207C54.5115 201.26 54.6349 201.313 54.7819 201.378C54.9289 201.443 55.0112 201.479 55.0348 201.485C55.6169 201.751 56.0578 202.046 56.3577 202.365C56.6576 202.684 56.8105 203.116 56.8105 203.665H56.8046Z" fill="white"/>
<path d="M64.5072 205.852H62.4081L62.0377 204.753H59.4035L59.0037 205.852H56.9222L59.9621 198.234H61.4908L64.5013 205.852H64.5072ZM61.5261 203.204L60.75 200.598H60.7206L59.9445 203.204H61.532H61.5261Z" fill="white"/>
<path d="M71.4688 205.852H69.7872L66.9002 201.219L66.8826 201.23L66.9355 205.852H65.0834V198.234H66.7532L69.6814 203.021L69.7049 202.997L69.6226 198.234H71.4747V205.852H71.4688Z" fill="white"/>
<path d="M79.63 205.852H77.5309L77.1605 204.753H74.5263L74.1265 205.852H72.045L75.0849 198.234H76.6136L79.6241 205.852H79.63ZM76.6489 203.204L75.8728 200.598H75.8434L75.0673 203.204H76.6548H76.6489Z" fill="white"/>
<path d="M85.1511 203.665C85.1511 204.434 84.9042 205.013 84.4162 205.409C83.9281 205.805 83.2931 206 82.5052 206C81.7173 206 81.0529 205.793 80.5414 205.379C80.0298 204.966 79.7711 204.363 79.7711 203.583V203.335H81.6938C81.6938 203.618 81.7585 203.86 81.8937 204.067C82.029 204.274 82.223 204.375 82.4817 204.375C82.6875 204.375 82.858 204.304 83.005 204.162C83.1461 204.02 83.2226 203.849 83.2226 203.642C83.2226 203.524 83.2049 203.423 83.1638 203.335C83.1226 203.246 83.052 203.163 82.958 203.098C82.8639 203.027 82.7816 202.98 82.7228 202.95C82.664 202.921 82.5581 202.874 82.417 202.809C82.2641 202.738 82.0407 202.643 81.7409 202.519C81.1588 202.277 80.706 201.993 80.3767 201.662C80.0475 201.331 79.8828 200.888 79.8828 200.338C79.8828 199.665 80.1533 199.121 80.6942 198.713C81.2352 198.3 81.8467 198.093 82.5346 198.093C82.9227 198.093 83.3049 198.17 83.6753 198.317C84.0457 198.465 84.3515 198.678 84.5808 198.961C84.7631 199.186 84.8924 199.417 84.9571 199.641C85.0218 199.866 85.0688 200.143 85.0806 200.462H83.1638C83.1285 200.22 83.0638 200.037 82.958 199.913C82.858 199.789 82.6934 199.724 82.4641 199.724C82.2877 199.724 82.1289 199.783 81.9996 199.895C81.8643 200.007 81.7996 200.149 81.7996 200.321C81.7996 200.457 81.8232 200.563 81.8702 200.64C81.9055 200.693 81.9643 200.758 82.0525 200.823C82.1407 200.894 82.2524 200.959 82.3935 201.03C82.5287 201.101 82.6463 201.154 82.7463 201.207C82.8462 201.254 82.9697 201.313 83.1167 201.378C83.2637 201.443 83.346 201.479 83.3695 201.485C83.9516 201.751 84.3926 202.046 84.6925 202.365C84.9924 202.684 85.1452 203.116 85.1452 203.665H85.1511Z" fill="white"/>
<path d="M90.6429 205.852H88.873V204.103H90.6429V205.852Z" fill="white"/>
<path d="M100.633 205.852H98.6982V202.802H96.2169V205.852H94.2825V198.234H96.2169V201.095H98.6982V198.234H100.633V205.852Z" fill="white"/>
<path d="M103.737 205.852H101.803V198.234H103.737V205.852Z" fill="white"/>
<path d="M109.44 202.838C109.44 203.169 109.44 203.429 109.423 203.618C109.411 203.807 109.37 204.037 109.294 204.309C109.217 204.587 109.111 204.812 108.964 205.001C108.711 205.314 108.394 205.562 108.012 205.739C107.63 205.917 107.236 205.999 106.824 205.999C106.459 205.999 106.118 205.94 105.801 205.816C104.784 205.444 104.272 204.64 104.272 203.405H106.33C106.365 203.996 106.559 204.292 106.912 204.292C107.042 204.292 107.147 204.262 107.236 204.209C107.324 204.156 107.383 204.073 107.412 203.961C107.447 203.848 107.471 203.748 107.477 203.659C107.488 203.565 107.494 203.452 107.494 203.322V198.24H109.429V202.844L109.44 202.838Z" fill="white"/>
<path d="M118.29 202.046C118.29 203.163 117.902 204.103 117.12 204.859C116.343 205.616 115.391 205.994 114.274 205.994C113.157 205.994 112.251 205.622 111.469 204.877C110.681 204.132 110.293 203.216 110.293 202.135C110.293 201.562 110.393 201.018 110.587 200.51C110.687 200.238 110.852 199.948 111.081 199.653C111.875 198.613 112.939 198.087 114.285 198.087C115.397 198.087 116.343 198.471 117.125 199.227C117.902 199.99 118.295 200.923 118.295 202.034L118.29 202.046ZM116.355 202.058C116.355 201.449 116.161 200.918 115.779 200.474C115.391 200.031 114.903 199.807 114.297 199.807C113.692 199.807 113.192 200.025 112.81 200.463C112.427 200.9 112.233 201.42 112.233 202.034C112.233 202.649 112.427 203.193 112.816 203.636C113.204 204.079 113.709 204.298 114.321 204.298C114.932 204.298 115.403 204.079 115.785 203.636C116.167 203.193 116.361 202.673 116.361 202.064L116.355 202.058Z" fill="white"/>
<path d="M124.075 203.665C124.075 204.434 123.828 205.013 123.34 205.409C122.852 205.805 122.217 206 121.429 206C120.642 206 119.977 205.793 119.466 205.379C118.954 204.966 118.695 204.363 118.695 203.583V203.335H120.618C120.618 203.618 120.683 203.86 120.818 204.067C120.953 204.274 121.147 204.375 121.406 204.375C121.612 204.375 121.782 204.304 121.929 204.162C122.07 204.02 122.147 203.849 122.147 203.642C122.147 203.524 122.129 203.423 122.088 203.335C122.047 203.246 121.976 203.163 121.882 203.098C121.788 203.027 121.706 202.98 121.647 202.95C121.588 202.921 121.482 202.874 121.341 202.809C121.188 202.738 120.965 202.643 120.665 202.519C120.083 202.277 119.63 201.993 119.301 201.662C118.972 201.331 118.807 200.888 118.807 200.338C118.807 199.665 119.078 199.121 119.618 198.713C120.159 198.3 120.771 198.093 121.459 198.093C121.847 198.093 122.229 198.17 122.599 198.317C122.97 198.465 123.276 198.678 123.505 198.961C123.687 199.186 123.817 199.417 123.881 199.641C123.946 199.866 123.993 200.143 124.005 200.462H122.088C122.053 200.22 121.988 200.037 121.882 199.913C121.782 199.789 121.618 199.724 121.388 199.724C121.212 199.724 121.053 199.783 120.924 199.895C120.789 200.007 120.724 200.149 120.724 200.321C120.724 200.457 120.747 200.563 120.794 200.64C120.83 200.693 120.888 200.758 120.977 200.823C121.065 200.894 121.177 200.959 121.318 201.03C121.453 201.101 121.571 201.154 121.67 201.207C121.77 201.254 121.894 201.313 122.041 201.378C122.188 201.443 122.27 201.479 122.294 201.485C122.876 201.751 123.317 202.046 123.617 202.365C123.917 202.684 124.069 203.116 124.069 203.665H124.075Z" fill="white"/>
<path d="M132.701 203.665C132.701 204.434 132.454 205.013 131.966 205.409C131.478 205.805 130.843 206 130.055 206C129.267 206 128.603 205.793 128.091 205.379C127.58 204.966 127.321 204.363 127.321 203.583V203.335H129.244C129.244 203.618 129.308 203.86 129.444 204.067C129.579 204.274 129.773 204.375 130.032 204.375C130.237 204.375 130.408 204.304 130.555 204.162C130.696 204.02 130.772 203.849 130.772 203.642C130.772 203.524 130.755 203.423 130.714 203.335C130.672 203.246 130.602 203.163 130.508 203.098C130.414 203.027 130.331 202.98 130.273 202.95C130.214 202.921 130.108 202.874 129.967 202.809C129.814 202.738 129.591 202.643 129.291 202.519C128.709 202.277 128.256 201.993 127.927 201.662C127.597 201.331 127.433 200.888 127.433 200.338C127.433 199.665 127.703 199.121 128.244 198.713C128.785 198.3 129.396 198.093 130.084 198.093C130.472 198.093 130.855 198.17 131.225 198.317C131.596 198.465 131.901 198.678 132.131 198.961C132.313 199.186 132.442 199.417 132.507 199.641C132.572 199.866 132.619 200.143 132.63 200.462H130.714C130.678 200.22 130.614 200.037 130.508 199.913C130.408 199.789 130.243 199.724 130.014 199.724C129.837 199.724 129.679 199.783 129.549 199.895C129.414 200.007 129.349 200.149 129.349 200.321C129.349 200.457 129.373 200.563 129.42 200.64C129.455 200.693 129.514 200.758 129.602 200.823C129.69 200.894 129.802 200.959 129.943 201.03C130.079 201.101 130.196 201.154 130.296 201.207C130.396 201.254 130.52 201.313 130.667 201.378C130.814 201.443 130.896 201.479 130.919 201.485C131.501 201.751 131.942 202.046 132.242 202.365C132.542 202.684 132.695 203.116 132.695 203.665H132.701Z" fill="white"/>
<path d="M140.403 205.852H138.304L137.934 204.753H135.3L134.9 205.852H132.819L135.858 198.234H137.387L140.398 205.852H140.403ZM137.422 203.204L136.646 200.598H136.617L135.841 203.204H137.428H137.422Z" fill="white"/>
<path d="M147.365 205.852H145.684L142.797 201.219L142.779 201.23L142.832 205.852H140.98V198.234H142.65L145.578 203.021L145.601 202.997L145.519 198.234H147.371V205.852H147.365Z" fill="white"/>
<path d="M156.214 202.046C156.214 203.163 155.826 204.103 155.044 204.859C154.268 205.616 153.315 205.994 152.198 205.994C151.081 205.994 150.176 205.622 149.394 204.877C148.606 204.132 148.218 203.216 148.218 202.135C148.218 201.562 148.318 201.018 148.512 200.51C148.612 200.238 148.776 199.948 149.006 199.653C149.799 198.613 150.864 198.087 152.21 198.087C153.321 198.087 154.268 198.471 155.05 199.227C155.826 199.99 156.22 200.923 156.22 202.034L156.214 202.046ZM154.28 202.058C154.28 201.449 154.086 200.918 153.704 200.474C153.315 200.031 152.827 199.807 152.222 199.807C151.616 199.807 151.116 200.025 150.734 200.463C150.352 200.9 150.158 201.42 150.158 202.034C150.158 202.649 150.352 203.193 150.74 203.636C151.128 204.079 151.634 204.298 152.245 204.298C152.857 204.298 153.327 204.079 153.709 203.636C154.092 203.193 154.286 202.673 154.286 202.064L154.28 202.058Z" fill="white"/>
<path d="M162 203.665C162 204.434 161.753 205.013 161.265 205.409C160.777 205.805 160.142 206 159.354 206C158.566 206 157.902 205.793 157.39 205.379C156.879 204.966 156.62 204.363 156.62 203.583V203.335H158.543C158.543 203.618 158.607 203.86 158.743 204.067C158.878 204.274 159.072 204.375 159.331 204.375C159.536 204.375 159.707 204.304 159.854 204.162C159.995 204.02 160.071 203.849 160.071 203.642C160.071 203.524 160.054 203.423 160.013 203.335C159.971 203.246 159.901 203.163 159.807 203.098C159.713 203.027 159.63 202.98 159.572 202.95C159.513 202.921 159.407 202.874 159.266 202.809C159.113 202.738 158.89 202.643 158.59 202.519C158.008 202.277 157.555 201.993 157.226 201.662C156.896 201.331 156.732 200.888 156.732 200.338C156.732 199.665 157.002 199.121 157.543 198.713C158.084 198.3 158.696 198.093 159.383 198.093C159.772 198.093 160.154 198.17 160.524 198.317C160.895 198.465 161.2 198.678 161.43 198.961C161.612 199.186 161.741 199.417 161.806 199.641C161.871 199.866 161.918 200.143 161.929 200.462H160.013C159.977 200.22 159.913 200.037 159.807 199.913C159.707 199.789 159.542 199.724 159.313 199.724C159.136 199.724 158.978 199.783 158.848 199.895C158.713 200.007 158.648 200.149 158.648 200.321C158.648 200.457 158.672 200.563 158.719 200.64C158.754 200.693 158.813 200.758 158.901 200.823C158.989 200.894 159.101 200.959 159.242 201.03C159.378 201.101 159.495 201.154 159.595 201.207C159.695 201.254 159.819 201.313 159.966 201.378C160.113 201.443 160.195 201.479 160.218 201.485C160.8 201.751 161.241 202.046 161.541 202.365C161.841 202.684 161.994 203.116 161.994 203.665H162Z" fill="white"/>
</g>
<defs>
<clipPath id="clip0_179_577">
<rect width="162" height="206" fill="white"/>
</clipPath>
</defs>
</svg>
