<svg width="119" height="118" viewBox="0 0 119 118" fill="none" xmlns="http://www.w3.org/2000/svg">
<path d="M58.9099 71.1535L57.4036 72.6342L55.8973 71.1535C52.4882 67.8017 46.944 67.8017 43.5348 71.1535C41.8793 72.7805 40.9686 74.9457 40.9686 77.2496C40.9686 79.5535 41.8808 81.7187 43.5348 83.3456L56.8744 96.4635C57.0206 96.6083 57.2121 96.6807 57.4036 96.6807C57.5951 96.6807 57.7851 96.6083 57.9329 96.4635L71.2724 83.3456C72.928 81.7187 73.8387 79.5535 73.8387 77.2496C73.8387 74.9457 72.9265 72.7805 71.2724 71.1535C67.8633 67.8017 62.3176 67.8017 58.9099 71.1535Z" fill="#FFD9F3"/>
<path d="M10.3602 81.6006H0.710205V86.124H10.3602V81.6006Z" fill="#545454"/>
<path d="M9.54614 62.9625L6.34766 66.1611L13.585 73.3982L16.7835 70.1996L9.54614 62.9625Z" fill="#545454"/>
<path d="M13.5846 94.3252L6.34753 101.562L9.54613 104.761L16.7832 97.5236L13.5846 94.3252Z" fill="#545454"/>
<path d="M102.029 71.6494C101.035 60.3122 105.201 49.4831 110.332 37.5172C115.333 25.8528 119.744 14.3347 118.791 1.66914L114.28 2.0084C115.156 13.6532 110.946 24.6059 106.175 35.735C103.704 41.4993 101.346 47.1671 99.6598 53.132C97.7117 60.0257 97.0121 66.2122 97.5233 72.0444C98.2184 79.9724 101.181 87.1255 104.046 94.0433C107.298 101.896 110.371 109.314 110.251 117.604L114.774 117.669C114.908 108.444 111.511 100.243 108.226 92.3108C105.491 85.7111 102.663 78.8838 102.029 71.6494Z" fill="#545454"/>
<path d="M56.2969 109.679C47.342 109.679 38.4746 105.751 33.0375 99.3462C27.5551 92.8868 25.6945 84.0254 28.1809 76.2195C30.907 67.6567 38.1067 60.4705 45.0698 53.521C50.4436 48.1578 55.9787 42.6302 59.4889 36.4195C61.5727 37.3664 63.9098 37.8791 66.3012 37.8791C67.9869 37.8791 69.6983 37.6242 71.3644 37.0905L69.9832 32.7827C64.8597 34.4262 58.9898 32.3726 56.8985 28.208C53.7201 21.8798 59.3607 12.7093 71.9901 3.67904L69.359 0C48.3116 15.0464 50.8055 26.1589 52.8546 30.2375C53.5617 31.6458 54.5328 32.8882 55.6938 33.9407C52.5357 39.6722 47.3496 44.8511 41.8867 50.3065L41.8747 50.3185C34.5287 57.6509 26.9324 65.2337 23.8716 74.8459C20.9163 84.1249 23.1086 94.6343 29.5907 102.273C34.2784 107.796 41.148 111.724 48.5965 113.357C50.8002 113.93 55.0926 114.154 56.9633 114.195L56.8774 109.673C56.6829 109.678 56.4899 109.679 56.2969 109.679Z" fill="#545454"/>
</svg>
