<svg width="28" height="23" viewBox="0 0 28 23" fill="none" xmlns="http://www.w3.org/2000/svg">
<path d="M9.19936 22.5685C19.4269 22.5685 25.0226 14.093 25.0226 6.7453C25.0226 6.50703 25.0173 6.26347 25.0067 6.0252C26.0952 5.238 27.0346 4.26295 27.7807 3.14585C26.7669 3.59689 25.6905 3.89146 24.5884 4.0195C25.7489 3.32388 26.6178 2.23109 27.0341 0.943708C25.9423 1.59072 24.7484 2.04713 23.5035 2.29337C22.6646 1.40208 21.5556 0.811942 20.3477 0.614193C19.1399 0.416444 17.9005 0.6221 16.8212 1.19936C15.742 1.77663 14.883 2.69335 14.377 3.80779C13.871 4.92224 13.7462 6.17233 14.0219 7.3648C11.8113 7.25387 9.64868 6.67961 7.67423 5.67926C5.69979 4.6789 3.95761 3.27477 2.56064 1.55791C1.85062 2.78206 1.63336 4.23063 1.953 5.60921C2.27264 6.9878 3.1052 8.19295 4.28147 8.97974C3.3984 8.9517 2.53467 8.71395 1.76164 8.28611V8.35495C1.76085 9.6396 2.20497 10.8849 3.0185 11.8791C3.83203 12.8733 4.96477 13.5552 6.22416 13.8087C5.40613 14.0325 4.54757 14.0651 3.71492 13.904C4.0703 15.0088 4.76173 15.9751 5.69272 16.668C6.62372 17.3609 7.74781 17.7459 8.90814 17.7692C6.93825 19.3166 4.50487 20.1559 1.99991 20.1519C1.55568 20.1513 1.11188 20.124 0.670898 20.0704C3.21567 21.703 6.17591 22.5701 9.19936 22.5685Z" fill="black"/>
</svg>
